<mxfile host="Electron" modified="2024-04-15T06:45:55.571Z" agent="Mozilla/5.0 (Windows NT 10.0; Win64; x64) AppleWebKit/537.36 (KHTML, like Gecko) draw.io/22.1.2 Chrome/114.0.5735.289 Electron/25.9.4 Safari/537.36" etag="Aso-P_7n6hcuW1hzmUth" version="22.1.2" type="device">
  <diagram name="Страница — 1" id="MZxHWl9p4fvkca1eYKvX">
    <mxGraphModel dx="2023" dy="342" grid="1" gridSize="10" guides="1" tooltips="1" connect="1" arrows="1" fold="1" page="1" pageScale="1" pageWidth="1169" pageHeight="827" math="0" shadow="0">
      <root>
        <mxCell id="0" />
        <mxCell id="1" parent="0" />
        <mxCell id="BIRRNOVn_aVJp5DWIsjl-15" value="Pool" style="swimlane;html=1;childLayout=stackLayout;resizeParent=1;resizeParentMax=0;horizontal=1;startSize=30;horizontalStack=0;whiteSpace=wrap;" parent="1" vertex="1">
          <mxGeometry x="20" y="1410" width="1610" height="1230" as="geometry" />
        </mxCell>
        <mxCell id="BIRRNOVn_aVJp5DWIsjl-43" style="edgeStyle=orthogonalEdgeStyle;rounded=0;orthogonalLoop=1;jettySize=auto;html=1;exitX=0.5;exitY=0;exitDx=0;exitDy=0;exitPerimeter=0;entryX=0.5;entryY=1;entryDx=0;entryDy=0;entryPerimeter=0;" parent="BIRRNOVn_aVJp5DWIsjl-15" source="AJbGNMBcEEjhxRVPhBPd-19" target="BIRRNOVn_aVJp5DWIsjl-21" edge="1">
          <mxGeometry relative="1" as="geometry" />
        </mxCell>
        <mxCell id="BIRRNOVn_aVJp5DWIsjl-57" style="edgeStyle=orthogonalEdgeStyle;rounded=0;orthogonalLoop=1;jettySize=auto;html=1;exitX=0.5;exitY=1;exitDx=0;exitDy=0;exitPerimeter=0;entryX=0.5;entryY=0;entryDx=0;entryDy=0;entryPerimeter=0;" parent="BIRRNOVn_aVJp5DWIsjl-15" source="BIRRNOVn_aVJp5DWIsjl-45" target="AJbGNMBcEEjhxRVPhBPd-20" edge="1">
          <mxGeometry relative="1" as="geometry" />
        </mxCell>
        <mxCell id="BIRRNOVn_aVJp5DWIsjl-16" value="Система" style="swimlane;html=1;startSize=20;horizontal=0;" parent="BIRRNOVn_aVJp5DWIsjl-15" vertex="1">
          <mxGeometry y="30" width="1610" height="460" as="geometry" />
        </mxCell>
        <mxCell id="BIRRNOVn_aVJp5DWIsjl-21" value="Запись информации&lt;br&gt;на диск" style="points=[[0.25,0,0],[0.5,0,0],[0.75,0,0],[1,0.25,0],[1,0.5,0],[1,0.75,0],[0.75,1,0],[0.5,1,0],[0.25,1,0],[0,0.75,0],[0,0.5,0],[0,0.25,0]];shape=mxgraph.bpmn.task;whiteSpace=wrap;rectStyle=rounded;size=10;html=1;container=1;expand=0;collapsible=0;taskMarker=abstract;" parent="BIRRNOVn_aVJp5DWIsjl-16" vertex="1">
          <mxGeometry x="930" y="310" width="120" height="80" as="geometry" />
        </mxCell>
        <mxCell id="BIRRNOVn_aVJp5DWIsjl-27" value="нехватка места" style="points=[[0.145,0.145,0],[0.5,0,0],[0.855,0.145,0],[1,0.5,0],[0.855,0.855,0],[0.5,1,0],[0.145,0.855,0],[0,0.5,0]];shape=mxgraph.bpmn.event;html=1;verticalLabelPosition=bottom;labelBackgroundColor=#ffffff;verticalAlign=top;align=center;perimeter=ellipsePerimeter;outlineConnect=0;aspect=fixed;outline=boundInt;symbol=error;spacingTop=-70;" parent="BIRRNOVn_aVJp5DWIsjl-16" vertex="1">
          <mxGeometry x="1147.5" y="218" width="45" height="45" as="geometry" />
        </mxCell>
        <mxCell id="BIRRNOVn_aVJp5DWIsjl-45" value="" style="points=[[0.25,0.25,0],[0.5,0,0],[0.75,0.25,0],[1,0.5,0],[0.75,0.75,0],[0.5,1,0],[0.25,0.75,0],[0,0.5,0]];shape=mxgraph.bpmn.gateway2;html=1;verticalLabelPosition=bottom;labelBackgroundColor=#ffffff;verticalAlign=top;align=center;perimeter=rhombusPerimeter;outlineConnect=0;outline=none;symbol=none;gwType=exclusive;" parent="BIRRNOVn_aVJp5DWIsjl-16" vertex="1">
          <mxGeometry x="1135" y="315" width="70" height="70" as="geometry" />
        </mxCell>
        <mxCell id="BIRRNOVn_aVJp5DWIsjl-46" style="edgeStyle=orthogonalEdgeStyle;rounded=0;orthogonalLoop=1;jettySize=auto;html=1;exitX=1;exitY=0.5;exitDx=0;exitDy=0;exitPerimeter=0;entryX=0;entryY=0.5;entryDx=0;entryDy=0;entryPerimeter=0;" parent="BIRRNOVn_aVJp5DWIsjl-16" source="BIRRNOVn_aVJp5DWIsjl-21" target="BIRRNOVn_aVJp5DWIsjl-45" edge="1">
          <mxGeometry relative="1" as="geometry" />
        </mxCell>
        <mxCell id="BIRRNOVn_aVJp5DWIsjl-47" style="edgeStyle=orthogonalEdgeStyle;rounded=0;orthogonalLoop=1;jettySize=auto;html=1;exitX=0.5;exitY=0;exitDx=0;exitDy=0;exitPerimeter=0;entryX=0.5;entryY=1;entryDx=0;entryDy=0;entryPerimeter=0;" parent="BIRRNOVn_aVJp5DWIsjl-16" source="BIRRNOVn_aVJp5DWIsjl-45" target="BIRRNOVn_aVJp5DWIsjl-27" edge="1">
          <mxGeometry relative="1" as="geometry" />
        </mxCell>
        <mxCell id="BIRRNOVn_aVJp5DWIsjl-49" value="Остановка записи" style="points=[[0.25,0,0],[0.5,0,0],[0.75,0,0],[1,0.25,0],[1,0.5,0],[1,0.75,0],[0.75,1,0],[0.5,1,0],[0.25,1,0],[0,0.75,0],[0,0.5,0],[0,0.25,0]];shape=mxgraph.bpmn.task;whiteSpace=wrap;rectStyle=rounded;size=10;html=1;container=1;expand=0;collapsible=0;taskMarker=abstract;" parent="BIRRNOVn_aVJp5DWIsjl-16" vertex="1">
          <mxGeometry x="1260" y="188" width="120" height="80" as="geometry" />
        </mxCell>
        <mxCell id="BIRRNOVn_aVJp5DWIsjl-51" value="Сохранение записи" style="points=[[0.25,0,0],[0.5,0,0],[0.75,0,0],[1,0.25,0],[1,0.5,0],[1,0.75,0],[0.75,1,0],[0.5,1,0],[0.25,1,0],[0,0.75,0],[0,0.5,0],[0,0.25,0]];shape=mxgraph.bpmn.task;whiteSpace=wrap;rectStyle=rounded;size=10;html=1;container=1;expand=0;collapsible=0;taskMarker=abstract;" parent="BIRRNOVn_aVJp5DWIsjl-16" vertex="1">
          <mxGeometry x="1450" y="310" width="120" height="80" as="geometry" />
        </mxCell>
        <mxCell id="BIRRNOVn_aVJp5DWIsjl-53" style="edgeStyle=orthogonalEdgeStyle;rounded=0;orthogonalLoop=1;jettySize=auto;html=1;exitX=1;exitY=0.5;exitDx=0;exitDy=0;exitPerimeter=0;entryX=-0.008;entryY=0.65;entryDx=0;entryDy=0;entryPerimeter=0;" parent="BIRRNOVn_aVJp5DWIsjl-16" source="BIRRNOVn_aVJp5DWIsjl-27" target="BIRRNOVn_aVJp5DWIsjl-49" edge="1">
          <mxGeometry relative="1" as="geometry" />
        </mxCell>
        <mxCell id="Xii7GyeH3iIX3upLqnUC-12" value="" style="points=[[0.25,0.25,0],[0.5,0,0],[0.75,0.25,0],[1,0.5,0],[0.75,0.75,0],[0.5,1,0],[0.25,0.75,0],[0,0.5,0]];shape=mxgraph.bpmn.gateway2;html=1;verticalLabelPosition=bottom;labelBackgroundColor=#ffffff;verticalAlign=top;align=center;perimeter=rhombusPerimeter;outlineConnect=0;outline=none;symbol=none;gwType=parallel;" vertex="1" parent="BIRRNOVn_aVJp5DWIsjl-16">
          <mxGeometry x="1275" y="307.5" width="90" height="85" as="geometry" />
        </mxCell>
        <mxCell id="Xii7GyeH3iIX3upLqnUC-13" style="edgeStyle=orthogonalEdgeStyle;rounded=0;orthogonalLoop=1;jettySize=auto;html=1;exitX=0.5;exitY=1;exitDx=0;exitDy=0;exitPerimeter=0;entryX=0.5;entryY=0;entryDx=0;entryDy=0;entryPerimeter=0;" edge="1" parent="BIRRNOVn_aVJp5DWIsjl-16" source="BIRRNOVn_aVJp5DWIsjl-49" target="Xii7GyeH3iIX3upLqnUC-12">
          <mxGeometry relative="1" as="geometry" />
        </mxCell>
        <mxCell id="Xii7GyeH3iIX3upLqnUC-15" style="edgeStyle=orthogonalEdgeStyle;rounded=0;orthogonalLoop=1;jettySize=auto;html=1;exitX=1;exitY=0.5;exitDx=0;exitDy=0;exitPerimeter=0;entryX=0;entryY=0.5;entryDx=0;entryDy=0;entryPerimeter=0;" edge="1" parent="BIRRNOVn_aVJp5DWIsjl-16" source="Xii7GyeH3iIX3upLqnUC-12" target="BIRRNOVn_aVJp5DWIsjl-51">
          <mxGeometry relative="1" as="geometry" />
        </mxCell>
        <mxCell id="BIRRNOVn_aVJp5DWIsjl-17" value="Пользователь" style="swimlane;html=1;startSize=20;horizontal=0;" parent="BIRRNOVn_aVJp5DWIsjl-15" vertex="1">
          <mxGeometry y="490" width="1610" height="740" as="geometry" />
        </mxCell>
        <mxCell id="AJbGNMBcEEjhxRVPhBPd-2" value="" style="points=[[0.25,0.25,0],[0.5,0,0],[0.75,0.25,0],[1,0.5,0],[0.75,0.75,0],[0.5,1,0],[0.25,0.75,0],[0,0.5,0]];shape=mxgraph.bpmn.gateway2;html=1;verticalLabelPosition=bottom;labelBackgroundColor=#ffffff;verticalAlign=top;align=center;perimeter=rhombusPerimeter;outlineConnect=0;outline=none;symbol=none;gwType=parallel;" parent="BIRRNOVn_aVJp5DWIsjl-17" vertex="1">
          <mxGeometry x="350" width="100" height="105" as="geometry" />
        </mxCell>
        <mxCell id="AJbGNMBcEEjhxRVPhBPd-4" value="Выбор качества&lt;br&gt;видео" style="points=[[0.25,0,0],[0.5,0,0],[0.75,0,0],[1,0.25,0],[1,0.5,0],[1,0.75,0],[0.75,1,0],[0.5,1,0],[0.25,1,0],[0,0.75,0],[0,0.5,0],[0,0.25,0]];shape=mxgraph.bpmn.task;whiteSpace=wrap;rectStyle=rounded;size=10;html=1;container=1;expand=0;collapsible=0;taskMarker=abstract;" parent="BIRRNOVn_aVJp5DWIsjl-17" vertex="1">
          <mxGeometry x="530" y="12.5" width="120" height="80" as="geometry" />
        </mxCell>
        <mxCell id="AJbGNMBcEEjhxRVPhBPd-5" style="edgeStyle=orthogonalEdgeStyle;rounded=0;orthogonalLoop=1;jettySize=auto;html=1;exitX=1;exitY=0.5;exitDx=0;exitDy=0;exitPerimeter=0;entryX=0;entryY=0.5;entryDx=0;entryDy=0;entryPerimeter=0;" parent="BIRRNOVn_aVJp5DWIsjl-17" source="AJbGNMBcEEjhxRVPhBPd-2" target="AJbGNMBcEEjhxRVPhBPd-4" edge="1">
          <mxGeometry relative="1" as="geometry" />
        </mxCell>
        <mxCell id="AJbGNMBcEEjhxRVPhBPd-6" value="Выбор расширения&lt;br&gt;звука" style="points=[[0.25,0,0],[0.5,0,0],[0.75,0,0],[1,0.25,0],[1,0.5,0],[1,0.75,0],[0.75,1,0],[0.5,1,0],[0.25,1,0],[0,0.75,0],[0,0.5,0],[0,0.25,0]];shape=mxgraph.bpmn.task;whiteSpace=wrap;rectStyle=rounded;size=10;html=1;container=1;expand=0;collapsible=0;taskMarker=abstract;" parent="BIRRNOVn_aVJp5DWIsjl-17" vertex="1">
          <mxGeometry x="530" y="162.5" width="120" height="80" as="geometry" />
        </mxCell>
        <mxCell id="AJbGNMBcEEjhxRVPhBPd-7" style="edgeStyle=orthogonalEdgeStyle;rounded=0;orthogonalLoop=1;jettySize=auto;html=1;exitX=0.5;exitY=1;exitDx=0;exitDy=0;exitPerimeter=0;entryX=0;entryY=0.5;entryDx=0;entryDy=0;entryPerimeter=0;" parent="BIRRNOVn_aVJp5DWIsjl-17" source="AJbGNMBcEEjhxRVPhBPd-2" target="AJbGNMBcEEjhxRVPhBPd-6" edge="1">
          <mxGeometry relative="1" as="geometry" />
        </mxCell>
        <mxCell id="AJbGNMBcEEjhxRVPhBPd-8" value="Выбор расширения&lt;br&gt;видео" style="points=[[0.25,0,0],[0.5,0,0],[0.75,0,0],[1,0.25,0],[1,0.5,0],[1,0.75,0],[0.75,1,0],[0.5,1,0],[0.25,1,0],[0,0.75,0],[0,0.5,0],[0,0.25,0]];shape=mxgraph.bpmn.task;whiteSpace=wrap;rectStyle=rounded;size=10;html=1;container=1;expand=0;collapsible=0;taskMarker=abstract;" parent="BIRRNOVn_aVJp5DWIsjl-17" vertex="1">
          <mxGeometry x="530" y="322.5" width="120" height="80" as="geometry" />
        </mxCell>
        <mxCell id="AJbGNMBcEEjhxRVPhBPd-9" style="edgeStyle=orthogonalEdgeStyle;rounded=0;orthogonalLoop=1;jettySize=auto;html=1;exitX=0.5;exitY=1;exitDx=0;exitDy=0;exitPerimeter=0;entryX=0;entryY=0.5;entryDx=0;entryDy=0;entryPerimeter=0;" parent="BIRRNOVn_aVJp5DWIsjl-17" source="AJbGNMBcEEjhxRVPhBPd-2" target="AJbGNMBcEEjhxRVPhBPd-8" edge="1">
          <mxGeometry relative="1" as="geometry" />
        </mxCell>
        <mxCell id="AJbGNMBcEEjhxRVPhBPd-10" value="Выбор дисплея" style="points=[[0.25,0,0],[0.5,0,0],[0.75,0,0],[1,0.25,0],[1,0.5,0],[1,0.75,0],[0.75,1,0],[0.5,1,0],[0.25,1,0],[0,0.75,0],[0,0.5,0],[0,0.25,0]];shape=mxgraph.bpmn.task;whiteSpace=wrap;rectStyle=rounded;size=10;html=1;container=1;expand=0;collapsible=0;taskMarker=abstract;" parent="BIRRNOVn_aVJp5DWIsjl-17" vertex="1">
          <mxGeometry x="530" y="482.5" width="120" height="80" as="geometry" />
        </mxCell>
        <mxCell id="AJbGNMBcEEjhxRVPhBPd-11" style="edgeStyle=orthogonalEdgeStyle;rounded=0;orthogonalLoop=1;jettySize=auto;html=1;exitX=0.5;exitY=1;exitDx=0;exitDy=0;exitPerimeter=0;entryX=0;entryY=0.5;entryDx=0;entryDy=0;entryPerimeter=0;" parent="BIRRNOVn_aVJp5DWIsjl-17" source="AJbGNMBcEEjhxRVPhBPd-2" target="AJbGNMBcEEjhxRVPhBPd-10" edge="1">
          <mxGeometry relative="1" as="geometry" />
        </mxCell>
        <mxCell id="AJbGNMBcEEjhxRVPhBPd-12" value="" style="points=[[0.145,0.145,0],[0.5,0,0],[0.855,0.145,0],[1,0.5,0],[0.855,0.855,0],[0.5,1,0],[0.145,0.855,0],[0,0.5,0]];shape=mxgraph.bpmn.event;html=1;verticalLabelPosition=bottom;labelBackgroundColor=#ffffff;verticalAlign=top;align=center;perimeter=ellipsePerimeter;outlineConnect=0;aspect=fixed;outline=end;symbol=terminate2;" parent="BIRRNOVn_aVJp5DWIsjl-17" vertex="1">
          <mxGeometry x="1460" y="30" width="100" height="100" as="geometry" />
        </mxCell>
        <mxCell id="AJbGNMBcEEjhxRVPhBPd-17" value="" style="points=[[0.145,0.145,0],[0.5,0,0],[0.855,0.145,0],[1,0.5,0],[0.855,0.855,0],[0.5,1,0],[0.145,0.855,0],[0,0.5,0]];shape=mxgraph.bpmn.event;html=1;verticalLabelPosition=bottom;labelBackgroundColor=#ffffff;verticalAlign=top;align=center;perimeter=ellipsePerimeter;outlineConnect=0;aspect=fixed;outline=standard;symbol=general;" parent="BIRRNOVn_aVJp5DWIsjl-17" vertex="1">
          <mxGeometry x="50" y="2.5" width="100" height="100" as="geometry" />
        </mxCell>
        <mxCell id="AJbGNMBcEEjhxRVPhBPd-19" value="Начать запись" style="points=[[0.25,0,0],[0.5,0,0],[0.75,0,0],[1,0.25,0],[1,0.5,0],[1,0.75,0],[0.75,1,0],[0.5,1,0],[0.25,1,0],[0,0.75,0],[0,0.5,0],[0,0.25,0]];shape=mxgraph.bpmn.task;whiteSpace=wrap;rectStyle=rounded;size=10;html=1;container=1;expand=0;collapsible=0;taskMarker=abstract;" parent="BIRRNOVn_aVJp5DWIsjl-17" vertex="1">
          <mxGeometry x="930" y="12.5" width="120" height="80" as="geometry" />
        </mxCell>
        <mxCell id="AJbGNMBcEEjhxRVPhBPd-20" value="Остановить запись" style="points=[[0.25,0,0],[0.5,0,0],[0.75,0,0],[1,0.25,0],[1,0.5,0],[1,0.75,0],[0.75,1,0],[0.5,1,0],[0.25,1,0],[0,0.75,0],[0,0.5,0],[0,0.25,0]];shape=mxgraph.bpmn.task;whiteSpace=wrap;rectStyle=rounded;size=10;html=1;container=1;expand=0;collapsible=0;taskMarker=abstract;" parent="BIRRNOVn_aVJp5DWIsjl-17" vertex="1">
          <mxGeometry x="1110" y="12.5" width="120" height="80" as="geometry" />
        </mxCell>
        <mxCell id="BIRRNOVn_aVJp5DWIsjl-1" value="Запуск программы" style="points=[[0.25,0,0],[0.5,0,0],[0.75,0,0],[1,0.25,0],[1,0.5,0],[1,0.75,0],[0.75,1,0],[0.5,1,0],[0.25,1,0],[0,0.75,0],[0,0.5,0],[0,0.25,0]];shape=mxgraph.bpmn.task;whiteSpace=wrap;rectStyle=rounded;size=10;html=1;container=1;expand=0;collapsible=0;taskMarker=abstract;" parent="BIRRNOVn_aVJp5DWIsjl-17" vertex="1">
          <mxGeometry x="190" y="12.5" width="120" height="80" as="geometry" />
        </mxCell>
        <mxCell id="BIRRNOVn_aVJp5DWIsjl-2" style="edgeStyle=orthogonalEdgeStyle;rounded=0;orthogonalLoop=1;jettySize=auto;html=1;exitX=1;exitY=0.5;exitDx=0;exitDy=0;exitPerimeter=0;entryX=0;entryY=0.5;entryDx=0;entryDy=0;entryPerimeter=0;" parent="BIRRNOVn_aVJp5DWIsjl-17" source="AJbGNMBcEEjhxRVPhBPd-17" target="BIRRNOVn_aVJp5DWIsjl-1" edge="1">
          <mxGeometry relative="1" as="geometry" />
        </mxCell>
        <mxCell id="BIRRNOVn_aVJp5DWIsjl-3" style="edgeStyle=orthogonalEdgeStyle;rounded=0;orthogonalLoop=1;jettySize=auto;html=1;exitX=1;exitY=0.5;exitDx=0;exitDy=0;exitPerimeter=0;entryX=0;entryY=0.5;entryDx=0;entryDy=0;entryPerimeter=0;" parent="BIRRNOVn_aVJp5DWIsjl-17" source="BIRRNOVn_aVJp5DWIsjl-1" target="AJbGNMBcEEjhxRVPhBPd-2" edge="1">
          <mxGeometry relative="1" as="geometry" />
        </mxCell>
        <mxCell id="BIRRNOVn_aVJp5DWIsjl-5" style="edgeStyle=orthogonalEdgeStyle;rounded=0;orthogonalLoop=1;jettySize=auto;html=1;exitX=0.5;exitY=1;exitDx=0;exitDy=0;exitPerimeter=0;entryX=0;entryY=0.5;entryDx=0;entryDy=0;entryPerimeter=0;" parent="BIRRNOVn_aVJp5DWIsjl-17" source="AJbGNMBcEEjhxRVPhBPd-2" target="BIRRNOVn_aVJp5DWIsjl-4" edge="1">
          <mxGeometry relative="1" as="geometry" />
        </mxCell>
        <mxCell id="BIRRNOVn_aVJp5DWIsjl-7" value="" style="points=[[0.25,0.25,0],[0.5,0,0],[0.75,0.25,0],[1,0.5,0],[0.75,0.75,0],[0.5,1,0],[0.25,0.75,0],[0,0.5,0]];shape=mxgraph.bpmn.gateway2;html=1;verticalLabelPosition=bottom;labelBackgroundColor=#ffffff;verticalAlign=top;align=center;perimeter=rhombusPerimeter;outlineConnect=0;outline=none;symbol=none;gwType=parallel;" parent="BIRRNOVn_aVJp5DWIsjl-17" vertex="1">
          <mxGeometry x="730" width="100" height="105" as="geometry" />
        </mxCell>
        <mxCell id="BIRRNOVn_aVJp5DWIsjl-14" style="edgeStyle=orthogonalEdgeStyle;rounded=0;orthogonalLoop=1;jettySize=auto;html=1;exitX=1;exitY=0.5;exitDx=0;exitDy=0;exitPerimeter=0;entryX=0;entryY=0.5;entryDx=0;entryDy=0;entryPerimeter=0;" parent="BIRRNOVn_aVJp5DWIsjl-17" source="BIRRNOVn_aVJp5DWIsjl-7" target="AJbGNMBcEEjhxRVPhBPd-19" edge="1">
          <mxGeometry relative="1" as="geometry" />
        </mxCell>
        <mxCell id="BIRRNOVn_aVJp5DWIsjl-12" style="edgeStyle=orthogonalEdgeStyle;rounded=0;orthogonalLoop=1;jettySize=auto;html=1;exitX=1;exitY=0.5;exitDx=0;exitDy=0;exitPerimeter=0;entryX=0.5;entryY=1;entryDx=0;entryDy=0;entryPerimeter=0;" parent="BIRRNOVn_aVJp5DWIsjl-17" source="AJbGNMBcEEjhxRVPhBPd-10" target="BIRRNOVn_aVJp5DWIsjl-7" edge="1">
          <mxGeometry relative="1" as="geometry" />
        </mxCell>
        <mxCell id="BIRRNOVn_aVJp5DWIsjl-11" style="edgeStyle=orthogonalEdgeStyle;rounded=0;orthogonalLoop=1;jettySize=auto;html=1;exitX=1;exitY=0.5;exitDx=0;exitDy=0;exitPerimeter=0;entryX=0.5;entryY=1;entryDx=0;entryDy=0;entryPerimeter=0;" parent="BIRRNOVn_aVJp5DWIsjl-17" source="AJbGNMBcEEjhxRVPhBPd-8" target="BIRRNOVn_aVJp5DWIsjl-7" edge="1">
          <mxGeometry relative="1" as="geometry" />
        </mxCell>
        <mxCell id="BIRRNOVn_aVJp5DWIsjl-9" style="edgeStyle=orthogonalEdgeStyle;rounded=0;orthogonalLoop=1;jettySize=auto;html=1;exitX=1;exitY=0.5;exitDx=0;exitDy=0;exitPerimeter=0;entryX=0.5;entryY=1;entryDx=0;entryDy=0;entryPerimeter=0;" parent="BIRRNOVn_aVJp5DWIsjl-17" source="AJbGNMBcEEjhxRVPhBPd-6" target="BIRRNOVn_aVJp5DWIsjl-7" edge="1">
          <mxGeometry relative="1" as="geometry" />
        </mxCell>
        <mxCell id="BIRRNOVn_aVJp5DWIsjl-8" style="edgeStyle=orthogonalEdgeStyle;rounded=0;orthogonalLoop=1;jettySize=auto;html=1;exitX=1;exitY=0.5;exitDx=0;exitDy=0;exitPerimeter=0;entryX=0;entryY=0.5;entryDx=0;entryDy=0;entryPerimeter=0;" parent="BIRRNOVn_aVJp5DWIsjl-17" source="AJbGNMBcEEjhxRVPhBPd-4" target="BIRRNOVn_aVJp5DWIsjl-7" edge="1">
          <mxGeometry relative="1" as="geometry" />
        </mxCell>
        <mxCell id="BIRRNOVn_aVJp5DWIsjl-4" value="Выбор пути" style="points=[[0.25,0,0],[0.5,0,0],[0.75,0,0],[1,0.25,0],[1,0.5,0],[1,0.75,0],[0.75,1,0],[0.5,1,0],[0.25,1,0],[0,0.75,0],[0,0.5,0],[0,0.25,0]];shape=mxgraph.bpmn.task;whiteSpace=wrap;rectStyle=rounded;size=10;html=1;container=1;expand=0;collapsible=0;taskMarker=abstract;" parent="BIRRNOVn_aVJp5DWIsjl-17" vertex="1">
          <mxGeometry x="530" y="642.5" width="120" height="80" as="geometry" />
        </mxCell>
        <mxCell id="BIRRNOVn_aVJp5DWIsjl-13" style="edgeStyle=orthogonalEdgeStyle;rounded=0;orthogonalLoop=1;jettySize=auto;html=1;exitX=1;exitY=0.5;exitDx=0;exitDy=0;exitPerimeter=0;" parent="BIRRNOVn_aVJp5DWIsjl-17" source="BIRRNOVn_aVJp5DWIsjl-4" target="BIRRNOVn_aVJp5DWIsjl-7" edge="1">
          <mxGeometry relative="1" as="geometry" />
        </mxCell>
        <mxCell id="Xii7GyeH3iIX3upLqnUC-14" style="edgeStyle=orthogonalEdgeStyle;rounded=0;orthogonalLoop=1;jettySize=auto;html=1;exitX=1;exitY=0.5;exitDx=0;exitDy=0;exitPerimeter=0;entryX=0.5;entryY=1;entryDx=0;entryDy=0;entryPerimeter=0;" edge="1" parent="BIRRNOVn_aVJp5DWIsjl-15" source="AJbGNMBcEEjhxRVPhBPd-20" target="Xii7GyeH3iIX3upLqnUC-12">
          <mxGeometry relative="1" as="geometry" />
        </mxCell>
        <mxCell id="Xii7GyeH3iIX3upLqnUC-16" style="edgeStyle=orthogonalEdgeStyle;rounded=0;orthogonalLoop=1;jettySize=auto;html=1;exitX=0.5;exitY=1;exitDx=0;exitDy=0;exitPerimeter=0;entryX=0.5;entryY=0;entryDx=0;entryDy=0;entryPerimeter=0;" edge="1" parent="BIRRNOVn_aVJp5DWIsjl-15" source="BIRRNOVn_aVJp5DWIsjl-51" target="AJbGNMBcEEjhxRVPhBPd-12">
          <mxGeometry relative="1" as="geometry" />
        </mxCell>
      </root>
    </mxGraphModel>
  </diagram>
</mxfile>
